<?xml version="1.0" encoding="utf-8"?>
<!-- Generator: Adobe Illustrator 16.0.0, SVG Export Plug-In . SVG Version: 6.00 Build 0)  -->
<!DOCTYPE svg PUBLIC "-//W3C//DTD SVG 1.1//EN" "http://www.w3.org/Graphics/SVG/1.1/DTD/svg11.dtd">
<svg version="1.1" id="Layer_1" xmlns="http://www.w3.org/2000/svg" xmlns:xlink="http://www.w3.org/1999/xlink" x="0px" y="0px"
	 width="512px" height="512px" viewBox="0 0 512 512" enable-background="new 0 0 512 512" xml:space="preserve">
<g>
	<g>
		<g>
			<path fill="#354F5D" d="M256.003,7.924c-137.012,0-248.082,111.06-248.082,248.082c0,137.001,111.07,248.07,248.082,248.07
				c137.006,0,248.076-111.069,248.076-248.07C504.079,118.983,393.009,7.924,256.003,7.924z"/>
		</g>
	</g>
	<g display="none">
		<g display="inline">
			<path fill="#E89531" d="M417.598,341.028l-44.39,42.655l-3.396-3.396l42.653-44.39l-4.809-4.812l-44.392,42.656l-3.396-3.396
				l42.655-44.391l-5.024-5.024l-44.392,42.655l-3.396-3.396l42.656-44.391l-4.812-4.811l-44.389,42.656l-3.398-3.396l42.654-44.389
				l-5.023-5.027l-44.389,42.657l-3.397-3.396l42.655-44.391l-4.811-4.812l-44.389,42.657l-3.398-3.397l42.656-44.391l-5.023-5.023
				l-44.391,42.656l-3.398-3.398l42.656-44.389l-4.809-4.812l-44.391,42.656l-3.396-3.396l42.656-44.391l-5.025-5.024
				l-44.391,42.655l-3.396-3.396l42.654-44.391l-4.809-4.811l-44.39,42.655l-3.397-3.396l42.655-44.391l-5.024-5.023L272.723,283.2
				l-3.396-3.398l42.656-44.39l-4.812-4.811l-44.389,42.657l-3.398-3.398l42.656-44.391l-5.024-5.023l-44.39,42.656l-3.398-3.397
				l42.656-44.391l-4.809-4.809l-44.391,42.656l-3.398-3.396l42.655-44.391l-5.022-5.025l-44.391,42.656l-3.396-3.396l42.656-44.391
				l-4.812-4.811l-44.391,42.657l-3.396-3.397l42.656-44.391l-5.025-5.025l-44.39,42.658l-3.396-3.398l42.654-44.391l-4.809-4.81
				l-44.389,42.656l-3.398-3.397l42.656-44.39l-5.025-5.026l-44.391,42.657l-3.396-3.396l42.656-44.392l-4.811-4.809l-44.389,42.656
				l-3.398-3.398l42.656-44.39l-5.023-5.024l-44.391,42.656l-3.396-3.397l42.656-44.39l-4.811-4.811l-44.391,42.657l-3.396-3.397
				l42.656-44.391l-5.027-5.025l-44.389,42.656l-3.396-3.396l42.656-44.391l-4.811-4.811L142.2,152.675l-3.398-3.396l42.656-44.39
				l-5.025-5.025l-44.391,42.657l-3.396-3.397l42.656-44.392l-5.17-5.17l-69.596,69.594c-8.594,8.594-8.594,22.527,0,31.119
				l225.188,225.188c8.592,8.593,22.525,8.593,31.117,0l69.597-69.595L417.598,341.028z"/>
		</g>
	</g>
	<g>
		<g>
			<g>
				<g>
					<g>
						<path fill="#D8D8D8" d="M416.337,168.899l-171.672,95.883l19.692,24.27c0,0,122.937-86.334,139.945-97.971
							C421.312,179.444,416.337,168.899,416.337,168.899z"/>
					</g>
				</g>
				<g>
					<g>
						<path fill="#C6C6C6" d="M416.829,170.621c-0.201-1.103-170.561,96.138-170.561,96.138l18.089,22.293
							c0,0,122.937-86.334,139.945-97.971C417.191,182.263,417.456,174.071,416.829,170.621z"/>
					</g>
				</g>
				<g>
					<g>
						<path fill="#EDC92F" d="M244.665,264.782c0,0-18.201,8.653-32.822,15.516c-11.313,5.312-33.719,10.445-41.178,8.955
							c-7.461-1.494-14.379-8.97-17.715-12.194c-1.301-1.791-2.756-3.502-4.367-5.113c-17.137-17.139-45.459-16.604-63.258,1.193
							c-17.797,17.797-18.332,46.119-1.193,63.257c17.139,17.14,45.461,16.604,63.258-1.192c0,0,27.752-22.976,38.791-30.437
							c11.041-7.46,23.498-3.355,29.84,0.001c10.143,5.37,20.887,4.178,28.049,0.598c7.16-3.581,20.29-16.313,20.29-16.313
							L244.665,264.782z M135.454,323.267c-10.951,10.953-28.381,11.281-38.928,0.734c-10.545-10.545-10.217-27.976,0.734-38.928
							c10.953-10.951,28.383-11.279,38.928-0.734C146.735,294.886,146.407,312.315,135.454,323.267z"/>
					</g>
				</g>
			</g>
		</g>
		<g>
			<g>
				<g>
					<g>
						<g>
							<path fill="#C6C6C6" d="M329.771,116.552c-11.635,17.01-97.968,139.945-97.968,139.945l24.268,19.69l95.885-171.669
								C351.956,104.519,341.409,99.544,329.771,116.552z"/>
						</g>
					</g>
					<g>
						<g>
							<path fill="#B7B7B7" d="M350.126,104.007c-3.512-0.603-11.625-0.212-20.354,12.545
								c-11.635,17.01-97.968,139.945-97.968,139.945l21.729,17.632C253.532,274.129,351.296,104.208,350.126,104.007z"/>
						</g>
					</g>
					<g>
						<g>
							<path fill="#EDC92F" d="M248.909,372.271c-1.609-1.611-3.32-3.065-5.111-4.365c-3.227-3.337-10.703-10.256-12.195-17.715
								c-1.492-7.461,3.643-29.865,8.953-41.181c6.861-14.62,15.516-32.821,15.516-32.821l-24.268-19.691
								c0,0-12.732,13.128-16.313,20.289c-3.58,7.162-4.775,17.904,0.596,28.049c3.357,6.341,7.459,18.797,0,29.84
								c-7.459,11.039-30.436,38.789-30.436,38.789c-17.797,17.797-18.332,46.119-1.193,63.258
								c17.139,17.14,45.461,16.604,63.258-1.192C265.516,417.73,266.048,389.409,248.909,372.271z M235.78,423.593
								c-10.951,10.953-28.381,11.279-38.928,0.734c-10.545-10.547-10.217-27.976,0.734-38.928
								c10.953-10.952,28.381-11.279,38.928-0.734C247.06,395.21,246.733,412.641,235.78,423.593z"/>
						</g>
					</g>
				</g>
			</g>
			<g>
				<g>
					<path fill="#C1C1C1" d="M239.659,274.159c-4.584-0.002-8.297,3.713-8.295,8.295c-0.002,4.582,3.713,8.297,8.295,8.297
						s8.297-3.715,8.297-8.297S244.241,274.157,239.659,274.159z"/>
				</g>
			</g>
			<g>
				<g>
					<path fill="#B2B1B1" d="M231.364,282.454c-0.002,4.582,3.713,8.297,8.295,8.297v-16.592
						C235.075,274.157,231.362,277.872,231.364,282.454z"/>
				</g>
			</g>
		</g>
	</g>
</g>
</svg>
