<?xml version="1.0" encoding="utf-8"?>
<!-- Generator: Adobe Illustrator 16.0.0, SVG Export Plug-In . SVG Version: 6.00 Build 0)  -->
<!DOCTYPE svg PUBLIC "-//W3C//DTD SVG 1.1//EN" "http://www.w3.org/Graphics/SVG/1.1/DTD/svg11.dtd">
<svg version="1.1" id="Layer_1" xmlns="http://www.w3.org/2000/svg" xmlns:xlink="http://www.w3.org/1999/xlink" x="0px" y="0px"
	 width="416px" height="377.797px" viewBox="0 0 416 377.797" enable-background="new 0 0 416 377.797" xml:space="preserve">
<g id="instabart-logo.psd">
	<g>
		<g>
			<path d="M54.909,319.305c-3.271-6.842-7.089-11.953-13.492-14.701c-5.843-2.508-10.546-0.533-14.673,3.414
				c-4.489,4.291-5.549,9.867-2.998,15.246c4.214,8.883,11.8,13.328,20.956,15.889c17.396,4.863,31.493-1.631,42.534-14.064
				c9.755-10.988,17.828-23.504,26.302-35.584c7.036-10.03,12.892-20.952,20.484-30.516c13.838-17.43,38.663-23.519,57.743-15.064
				c3.61,1.6,7.037,5.625,10.309,5.378c2.957-0.226,5.352-5.078,8.398-7.347c15.93-11.852,39.767-12.461,56.657-0.035
				c10.339,7.606,18.994,17.476,28.604,26.107c11.476,10.311,22.552,21.217,34.945,30.307c10.739,7.877,23.354,12.109,37.125,7.15
				c9.043-3.256,17.033-7.844,21.897-16.67c5.675-10.297,1.319-20.415-10.004-22.898c-6.06-1.33-14.14,4.472-17.017,12.291
				c-0.729,1.982-1.242,4.045-1.854,6.069c-0.449,0.044-0.897,0.089-1.349,0.132c-0.449-2.273-1.187-4.533-1.301-6.824
				c-0.472-9.319,1.148-18.256,9.902-23.211c8.57-4.853,17.785-4.605,26.259,0.93c24.525,16.021,31.835,52.529,1.224,73.904
				c-24.451,17.072-51.916,20.367-80.808,14.264c-29.259-6.184-55.737-19.152-81.907-32.979c-6.229-3.291-12.826-5.883-19.115-9.066
				c-4.467-2.262-8.205-1.707-12.022,1.414c-11.963,9.775-24.028,19.426-36.071,29.105c-17.329,13.928-35.541,26.711-56.011,35.4
				c-25.726,10.922-52.356,13.141-78.889,2.516c-12.425-4.975-22.459-13.371-26.63-26.611c-5.805-18.428,0.705-39.223,16.099-49.84
				c7.396-5.1,18.89-5.146,25.656-0.281C52.964,298.235,57.333,309.92,54.909,319.305z"/>
		</g>
	</g>
	<g>
		<path d="M48.884,48.885h97.826v97.833H48.884V48.885L48.884,48.885L48.884,48.885z M146.709,0H48.884C21.883,0,0,21.884,0,48.885
			v97.83c0,26.995,21.883,48.881,48.884,48.881h97.826c26.994,0,48.885-21.887,48.885-48.881v-97.83
			C195.595,21.884,173.704,0,146.709,0L146.709,0L146.709,0z"/>
		<path d="M97.473,57.347c-22.161,0-40.122,17.969-40.122,40.128c0,22.157,17.96,40.116,40.122,40.116
			c22.158,0,40.115-17.959,40.115-40.116C137.587,75.316,119.631,57.347,97.473,57.347"/>
	</g>
	<g>
		<path d="M270.087,48.885h97.825v97.832h-97.825V48.885L270.087,48.885L270.087,48.885z M367.912,0h-97.825
			c-27.001,0-48.884,21.884-48.884,48.885v97.83c0,26.994,21.883,48.881,48.884,48.881h97.825c26.994,0,48.886-21.887,48.886-48.881
			v-97.83C416.798,21.884,394.906,0,367.912,0L367.912,0L367.912,0z"/>
		<path d="M318.676,57.347c-22.16,0-40.121,17.969-40.121,40.128c0,22.157,17.961,40.116,40.121,40.116
			c22.158,0,40.115-17.959,40.115-40.116C358.791,75.316,340.834,57.347,318.676,57.347"/>
	</g>
</g>
</svg>
