<?xml version="1.0" encoding="UTF-8"?>
<svg width="498px" height="498px" viewBox="0 0 498 498" version="1.1" xmlns="http://www.w3.org/2000/svg" xmlns:xlink="http://www.w3.org/1999/xlink">
    <!-- Generator: Sketch 44.1 (41455) - http://www.bohemiancoding.com/sketch -->
    <title>Group 2</title>
    <desc>Created with Sketch.</desc>
    <defs>
        <path d="M0.9,249 C0.9,112 112,0.9 249,0.9 C386,0.9 497.1,112 497.1,249 C497.1,386 386,497.1 249,497.1 C112,497.1 0.9,386 0.9,249 Z" id="path-1"></path>
    </defs>
    <g id="Page-1" stroke="none" stroke-width="1" fill="none" fill-rule="evenodd">
        <g id="Group-2">
            <path d="M0.9,249 C0.9,112 112,0.9 249,0.9 C386,0.9 497.1,112 497.1,249 C497.1,386 386,497.1 249,497.1 C112,497.1 0.9,386 0.9,249 Z" id="Shape" fill="#4573A5" fill-rule="nonzero"></path>
            <g id="Group">
                <mask id="mask-2" fill="white">
                    <use xlink:href="#path-1"></use>
                </mask>
                <g id="Mask" fill-rule="nonzero"></g>
                <g mask="url(#mask-2)">
                    <g transform="translate(75.000000, 76.000000)">
                        <polygon id="Rectangle" fill="#FFFFFF" fill-rule="evenodd" points="57.4273119 194.187603 181.405619 35.5026061 292.64871 122.415234 168.670403 281.100231"></polygon>
                        <path d="M99.5552857,69.4009403 C116.273158,48.0030399 133.179586,26.7431729 149.588117,5.11287168 C154.024842,-0.73185407 157.06999,-1.28622322 162.944166,3.3588854 C203.338689,35.3084413 243.475739,67.623114 284.794289,98.3544041 C311.479483,118.200574 323.53333,157.556474 296.942122,192.13702 C276.962184,218.125116 256.828199,244.00214 236.370874,269.61726 C215.665843,295.549429 185.711327,303.12452 157.258945,290.187591 C154.619958,288.989129 152.04408,287.496493 149.743906,285.745816 C118.852845,262.2609 87.7959047,238.952731 58.1798888,213.883253 C35.9378706,195.048417 32.0244425,157.958607 49.4134363,134.504308 C65.7200131,112.506571 83.0211385,91.2394455 99.8876338,69.6513159 L99.5597895,69.3951758 L99.5552857,69.4009403 Z M255.465152,158.905453 C265.749191,145.718771 265.280088,129.069489 253.753347,118.819861 C239.017024,105.719151 225.462115,106.56583 210.922567,121.31072 C207.85949,124.413252 204.764128,127.592675 200.779379,129.622355 C194.81289,132.647334 189.135043,132.825077 183.806139,128.169669 C178.403711,123.466102 177.054555,117.723997 179.174114,111.015792 C181.591577,103.333515 187.073415,99.0201295 194.582707,96.7827755 C198.179262,95.7123242 200.928213,93.4505076 199.74047,89.291979 C198.466509,84.8525748 194.729531,85.3677206 191.268359,86.1818998 C185.908636,87.4343955 181.406389,90.3872629 177.358955,93.955399 C164.9397,104.90759 163.658866,122.788975 174.276819,135.280646 C183.157452,145.728017 199.182973,146.236032 211.107465,136.308339 C214.283726,133.665566 217.02091,130.494084 220.060652,127.670384 C228.120091,120.200084 237.294051,119.495392 244.329133,125.725175 C252.367227,132.840713 253.195434,143.114484 246.923512,151.972062 C241.771556,159.253881 234.566773,162.026208 226.193278,162.465102 C222.11196,162.674087 218.482959,163.477825 218.551991,168.238354 C218.623463,173.232871 222.857956,173.598436 226.588798,173.589074 C238.249058,173.55509 247.980204,169.386764 255.475407,158.904182 L255.465152,158.905453 Z M127.992124,158.541007 C120.64726,152.80257 114.013537,147.861102 107.682053,142.580208 C103.858506,139.388695 101.452064,140.358527 98.6910013,143.975514 C94.9215892,148.930552 98.860234,151.014453 101.823584,153.338959 C123.905165,170.683813 146.024024,187.992809 168.204687,205.210844 C172.625214,208.645972 177.13028,212.091449 182.010733,214.771923 C198.469725,223.806409 222.920667,211.894321 225.891689,193.61606 C226.361183,190.715174 225.880397,188.046586 222.91199,186.878532 C219.762514,185.633995 217.140925,186.760648 215.526083,189.787845 C214.838906,191.070476 214.502853,192.543886 213.809925,193.822023 C206.921453,206.468183 194.396073,210.087262 183.871736,202.087545 C169.483261,191.161667 155.422312,179.804721 141.059613,168.833997 C137.49657,166.115226 137.212533,163.823152 139.981787,160.444645 C144.323821,155.147915 148.486306,149.701622 152.579772,144.201405 C154.744605,141.288279 156.21848,137.872449 152.534869,135.189444 C148.827003,132.478206 146.289832,135.026165 144.033947,137.960987 C138.978474,144.538397 133.84123,151.042636 127.981868,158.542278 L127.992124,158.541007 Z M140.272883,223.380263 C151.793448,232.381115 163.3533,241.319829 174.797302,250.418678 C177.834664,252.838141 180.208746,254.126701 183.281271,250.288892 C186.424607,246.348594 185.155076,244.084925 181.656062,241.379045 C158.919224,223.782179 136.28722,206.062987 113.682239,188.309207 C110.477319,185.795966 107.167124,184.128798 104.102415,187.731349 C100.586845,191.863555 103.482527,194.701469 106.860757,197.312982 C118.050006,205.943583 129.153685,214.68371 140.278634,223.384756 L140.272883,223.380263 Z M78.5042371,167.963941 C76.233857,171.806477 76.0397857,175.516674 79.6933348,178.380422 C83.2030925,181.131829 87.072031,181.016845 89.9693977,177.45065 C92.8082159,173.959394 92.4872938,170.208886 88.9398265,167.23307 C85.3003327,164.185355 81.7992755,165.441816 78.5099888,167.968435 L78.5042371,167.963941 Z" id="Shape" fill="#F47920" fill-rule="nonzero"></path>
                        <polygon id="Shape" fill="#D0D0D0" fill-rule="nonzero" points="280.354665 587 66.607324 587 13.1082806 249.646395 333.853708 249.646395"></polygon>
                        <polygon id="Shape" fill="#A8A8A8" fill-rule="nonzero" points="337.641368 281.824739 10.3586317 281.824739 0.652147504 230.962195 347.347852 230.962195"></polygon>
                    </g>
                </g>
            </g>
        </g>
    </g>
</svg>