<svg width="512" height="512" viewBox="0 0 512 512" fill="none" xmlns="http://www.w3.org/2000/svg"><g clip-path="url(#clip0_418_882)"><path d="M483.4 332.098C480.121 330.551 476.197 331.004 473.334 333.305C470.51 335.607 469.24 339.323 470.112 342.85C472.121 351.055 468.349 377.783 455.155 387.649C429.791 406.605 394.133 396.627 368.465 363.278C346.646 334.946 327.344 320.196 302.491 321.894C287.117 322.893 266.307 344.432 255.596 356.693C244.886 344.432 224.778 322.893 209.385 321.894C184.419 320.234 164.528 334.946 142.708 363.278C117.06 396.608 81.4209 406.624 56.0187 387.649C42.8248 377.802 39.0334 351.055 41.0618 342.85C41.9338 339.304 40.6637 335.607 37.8391 333.305C34.9956 331.004 31.0905 330.551 27.7731 332.098C11.1669 339.964 -12.1311 372.936 6.44663 417.055C18.6927 446.16 40.9101 467.532 70.6913 478.849C107.013 492.657 153.172 490.072 191.143 472.115C218.915 458.968 241.284 434.7 255.596 417.384C269.909 434.7 292.278 458.968 320.049 472.115C356.92 489.563 402.701 493.222 440.501 478.849C470.263 467.532 492.481 446.16 504.746 417.055C523.323 372.936 500.007 339.945 483.4 332.098Z" fill="#000"/><path d="M65.5014 90.7429C65.5014 86.2243 69.164 82.5608 73.6835 82.5608H173.97C178.488 82.5608 182.152 86.2243 182.152 90.7429V191.038C182.152 195.556 178.488 199.22 173.97 199.22H73.6835C69.164 199.22 65.5014 195.556 65.5014 191.038V90.7429ZM182.15 24.2692H65.5014C33.3045 24.2692 7.21069 50.3645 7.21069 82.5608V199.216C7.21069 231.406 33.3045 257.503 65.5014 257.503H182.152C214.34 257.503 240.444 231.404 240.444 199.216V82.5608C240.444 50.3645 214.34 24.2692 182.15 24.2692Z" fill="#000"/><path d="M168.295 141.639C168.294 117.491 148.726 97.9072 124.576 97.9072C100.424 97.9072 80.8499 117.49 80.8499 141.639C80.8499 165.787 100.424 185.359 124.576 185.359C148.725 185.359 168.295 165.787 168.295 141.639Z" fill="#000"/><path d="M328.518 90.7429C328.518 86.2243 332.181 82.5608 336.699 82.5608H436.985C441.503 82.5608 445.167 86.2243 445.167 90.7429V191.037C445.167 195.555 441.503 199.219 436.985 199.219H336.699C332.181 199.219 328.518 195.555 328.518 191.037V90.7429ZM445.167 24.2692H328.518C296.321 24.2692 270.228 50.3645 270.228 82.5608V199.216C270.228 231.404 296.321 257.503 328.518 257.503H445.167C477.355 257.503 503.459 231.404 503.459 199.216V82.5608C503.459 50.3645 477.355 24.2692 445.167 24.2692Z" fill="#000"/><path d="M386.598 97.9072C362.447 97.9072 342.873 117.491 342.873 141.64C342.873 165.787 362.448 185.359 386.598 185.359C410.747 185.359 430.318 165.787 430.318 141.64C430.318 117.492 410.748 97.9072 386.598 97.9072Z" fill="#000"/></g><defs><clipPath id="clip0_418_882"><rect width="512" height="512" rx="64" fill="#fff"/></clipPath></defs><style>path{fill:#111827}@media (prefers-color-scheme:dark){path{fill:#bfdbfe}}</style></svg>